<?xml version="1.0" encoding="UTF-8" standalone="no"?>
<svg
   xmlns:dc="http://purl.org/dc/elements/1.1/"
   xmlns:cc="http://creativecommons.org/ns#"
   xmlns:rdf="http://www.w3.org/1999/02/22-rdf-syntax-ns#"
   xmlns:svg="http://www.w3.org/2000/svg"
   xmlns="http://www.w3.org/2000/svg"
   xmlns:sodipodi="http://sodipodi.sourceforge.net/DTD/sodipodi-0.dtd"
   xmlns:inkscape="http://www.inkscape.org/namespaces/inkscape"
   width="24px"
   height="24px"
   viewBox="0 0 24 24"
   version="1.1"
   id="svg3889"
   sodipodi:docname="accLogo.svg"
   inkscape:version="0.92.5 (2060ec1f9f, 2020-04-08)">
  <metadata
     id="metadata3895">
    <rdf:RDF>
      <cc:Work
         rdf:about="">
        <dc:format>image/svg+xml</dc:format>
        <dc:type
           rdf:resource="http://purl.org/dc/dcmitype/StillImage" />
        <dc:title></dc:title>
      </cc:Work>
    </rdf:RDF>
  </metadata>
  <defs
     id="defs3893" />
  <sodipodi:namedview
     pagecolor="#ffffff"
     bordercolor="#666666"
     borderopacity="1"
     objecttolerance="10"
     gridtolerance="10"
     guidetolerance="10"
     inkscape:pageopacity="0"
     inkscape:pageshadow="2"
     inkscape:window-width="1600"
     inkscape:window-height="836"
     id="namedview3891"
     showgrid="false"
     inkscape:zoom="27.416667"
     inkscape:cx="5.4164134"
     inkscape:cy="12"
     inkscape:window-x="0"
     inkscape:window-y="27"
     inkscape:window-maximized="1"
     inkscape:current-layer="svg3889" />
  <g
     id="g3887">
    <path
       fill="none"
       d="M0 0h24v24H0z"
       id="path3883" />
    <path
       d="M12 2c5.52 0 10 4.48 10 10s-4.48 10-10 10S2 17.52 2 12 6.48 2 12 2zM6.023 15.416C7.491 17.606 9.695 19 12.16 19c2.464 0 4.669-1.393 6.136-3.584A8.968 8.968 0 0 0 12.16 13a8.968 8.968 0 0 0-6.137 2.416zM12 11a3 3 0 1 0 0-6 3 3 0 0 0 0 6z"
       id="path3885" />
  </g>
  <g
     id="g4705">
    <path
       inkscape:connector-curvature="0"
       id="path3897"
       d="M 10.934954,21.927693 C 6.7830762,21.448465 3.3948708,18.529982 2.3462044,14.529642 2.0946483,13.570033 2.0551458,13.227204 2.0551458,12.003647 c 0,-1.199719 0.036282,-1.5287 0.2712344,-2.459346 C 3.2701998,5.8058276 6.3792595,2.8843564 10.14883,2.1938263 10.924036,2.05182 11.417256,2.0160513 12.28258,2.0390852 c 1.104187,0.029392 1.881185,0.1642421 2.901615,0.503582 0.600326,0.1996362 1.58681,0.6649577 2.115501,0.9978759 1.980719,1.2472638 3.496317,3.2035605 4.209027,5.4329085 0.862908,2.6991694 0.525304,5.6816614 -0.916893,8.1001044 -1.569152,2.631335 -4.162606,4.361596 -7.220272,4.817109 -0.52199,0.07776 -1.901998,0.09873 -2.436604,0.03703 z m 1.795564,-2.939937 c 1.841281,-0.174608 3.551965,-1.100277 4.873339,-2.637017 0.290079,-0.337358 0.698879,-0.884494 0.698879,-0.935377 0,-0.01508 -0.160031,-0.162628 -0.355624,-0.327872 C 16.91254,14.213442 15.4909,13.508456 14.160616,13.209781 12.906759,12.928264 11.44559,12.920278 10.246041,13.188384 9.2647357,13.407712 8.3215368,13.78375 7.4699088,14.295183 7.1540298,14.484879 6.4520159,15.004503 6.15864,15.265772 l -0.1623326,0.144566 0.1334837,0.193311 c 0.4304265,0.623344 1.1801522,1.423552 1.7413335,1.858585 1.4884144,1.153833 3.1797564,1.6848 4.8593934,1.525522 z m -0.02657,-8.057953 c 0.585007,-0.140929 1.049173,-0.413454 1.480393,-0.869181 C 14.696229,9.5196456 14.958363,8.9184682 15.007037,8.1738602 15.059301,7.3743275 14.742351,6.5020629 14.187193,5.9176041 13.301398,4.9850562 11.858577,4.7235403 10.699657,5.285477 9.8567099,5.694205 9.2857867,6.401357 9.0720004,7.3015112 c -0.1004109,0.4227838 -0.099405,1.020723 0.00239,1.4194614 0.2913308,1.1411836 1.2063736,2.0180614 2.3374726,2.2399784 0.308112,0.06045 0.978993,0.04428 1.29209,-0.03115 z"
       style="fill:#02c1ca;stroke-width:0.03647416;fill-opacity:1" />
  </g>
  <path
     style="fill:#02c1ca;fill-opacity:1;stroke-width:0.03647416"
     d="M 10.75683,21.889453 C 9.5289013,21.714018 8.4845956,21.38253 7.4079027,20.826426 6.4421453,20.327618 5.7407413,19.809023 4.926387,18.991673 4.1050344,18.167299 3.5505535,17.386716 3.0456851,16.344073 2.7357568,15.704016 2.5638481,15.251669 2.3913826,14.622392 2.1039409,13.573602 2.0702015,13.248869 2.0939717,11.759896 2.1139412,10.508998 2.1231956,10.425261 2.3330805,9.5963526 3.1773036,6.2622212 5.6731313,3.5834385 8.9215805,2.5248876 9.8915621,2.208806 10.588008,2.0956974 11.699644,2.073707 c 1.923074,-0.038042 3.068734,0.2108371 4.735614,1.0287487 1.066982,0.5235511 1.750342,1.0135933 2.591119,1.8581098 0.556757,0.5592331 0.858181,0.9269292 1.273683,1.5537202 0.827017,1.247566 1.335415,2.5826758 1.569461,4.1215803 0.09053,0.595241 0.110604,1.702675 0.04243,2.340376 -0.252255,2.359478 -1.228686,4.414498 -2.884065,6.069877 -1.473249,1.473249 -3.341807,2.432794 -5.437608,2.792329 -0.574515,0.09856 -2.285082,0.129349 -2.833444,0.051 z m 2.468702,-2.9524 c 1.511087,-0.273879 2.810627,-0.974033 3.957482,-2.132172 0.443843,-0.448211 0.96913,-1.080355 1.094046,-1.316602 0.04472,-0.08458 0.03705,-0.09922 -0.131193,-0.25032 -0.498316,-0.44753 -1.256127,-0.954572 -1.93391,-1.293955 -1.139293,-0.570472 -2.1845,-0.853656 -3.484312,-0.944024 -1.602406,-0.111406 -3.0993549,0.192766 -4.6084961,0.936422 -0.6851715,0.337631 -1.3637649,0.793661 -2.0030338,1.346086 l -0.1428514,0.123445 0.1762009,0.246923 c 0.4781711,0.670098 1.3580837,1.57551 1.9169861,1.97254 1.0550316,0.749469 2.0994153,1.183829 3.2359743,1.345845 0.456126,0.06502 1.475749,0.04689 1.923107,-0.03419 z m -0.558569,-7.989395 c 0.878997,-0.186293 1.678688,-0.833974 2.073769,-1.6795729 0.205733,-0.4403347 0.266862,-0.7273229 0.26803,-1.2583587 0.0011,-0.4831495 -0.04901,-0.75204 -0.217045,-1.1655837 C 14.439601,5.9775786 13.679009,5.3122742 12.769605,5.0753606 12.399206,4.978866 11.786562,4.9606461 11.418173,5.0351693 10.429013,5.2352707 9.5756725,5.9315063 9.2100088,6.8367979 9.0395974,7.2586942 8.9981132,7.4889253 8.9986658,8.0097264 c 6.127e-4,0.5790624 0.051152,0.8075927 0.2863462,1.2948329 0.2057672,0.4262786 0.4737801,0.7692277 0.818352,1.0471607 0.305,0.246016 0.820751,0.509592 1.155701,0.590625 0.286311,0.06927 1.0918,0.07231 1.407898,0.0053 z"
     id="path4707"
     inkscape:connector-curvature="0" />
  <path
     style="fill:#02c1ca;fill-opacity:1;stroke-width:0.03647416"
     d="M 10.982371,21.918129 C 9.5736551,21.774089 7.9848409,21.226544 6.7377968,20.455341 5.5088466,19.695328 4.2914004,18.475963 3.5252084,17.23769 3.2284911,16.758153 2.8118007,15.89545 2.6304219,15.385151 2.4232312,14.802233 2.1992923,13.926814 2.1362911,13.453504 2.0652319,12.919655 2.0649131,11.090014 2.1357866,10.557635 2.3457235,8.9806534 3.0583174,7.3124739 4.1200588,5.912462 4.4781636,5.4402651 5.4624094,4.4570196 5.9391903,4.0951793 7.388264,2.9954432 9.1264505,2.2894335 10.844155,2.1029003 c 0.440607,-0.047848 1.747782,-0.048523 2.23548,-0.00115 1.183893,0.1149863 2.120269,0.3943129 3.355623,1.0010021 1.098804,0.5396286 1.726799,0.9916289 2.607903,1.8770419 1.586642,1.5944014 2.530574,3.5160281 2.850014,5.8019737 0.06337,0.453483 0.06456,1.986824 0.0019,2.425532 -0.174459,1.221079 -0.481947,2.234375 -0.981217,3.2335 -0.285519,0.571372 -0.760613,1.313748 -1.163563,1.818172 -0.330858,0.414175 -1.08134,1.161651 -1.510724,1.504672 -1.479211,1.181694 -3.412875,1.978911 -5.196389,2.142383 -0.370811,0.03399 -1.766603,0.04219 -2.06079,0.01211 z m 1.817684,-2.930333 c 1.377674,-0.145118 2.672004,-0.709129 3.828654,-1.668355 0.533796,-0.442684 1.227508,-1.200919 1.568247,-1.714108 l 0.133191,-0.2006 -0.181487,-0.161142 c -0.335098,-0.297535 -0.90755,-0.710703 -1.339136,-0.966525 -1.142598,-0.677275 -2.293048,-1.074434 -3.583992,-1.237271 -0.540873,-0.06822 -1.766845,-0.05916 -2.297872,0.01698 -1.3458318,0.192986 -2.6917503,0.705649 -3.7750764,1.437933 -0.3562213,0.240791 -1.1672243,0.877189 -1.167108,0.915836 1.094e-4,0.03792 0.4095768,0.569659 0.6911052,0.897489 0.3720332,0.433221 1.024243,1.049163 1.3877165,1.310551 1.489831,1.071396 3.1116127,1.540287 4.7357577,1.369208 z m 0.133684,-8.11306 C 13.893503,10.55372 14.671745,9.726743 14.926252,8.7574468 15.044079,8.3087001 15.035874,7.625446 14.907506,7.196477 14.737256,6.6275504 14.44411,6.1381477 14.067299,5.7937634 13.020644,4.83718 11.492696,4.7164361 10.32428,5.4979768 9.2604638,6.2095521 8.7733831,7.47269 9.074423,8.7392097 c 0.2306451,0.9703587 1.04076,1.8316973 2.01737,2.1449293 0.343186,0.110072 0.364493,0.112228 0.984803,0.09965 0.497543,-0.01009 0.600346,-0.02317 0.857143,-0.109057 z"
     id="path4709"
     inkscape:connector-curvature="0" />
  <path
     style="fill:#02c1ca;fill-opacity:1;stroke-width:0.03647416"
     d="M 10.690578,21.885776 C 8.8666464,21.627087 6.9775174,20.790559 5.6024316,19.632686 3.9570446,18.247211 2.8435925,16.448717 2.3018918,14.30152 2.1054019,13.522672 2.0736917,13.137663 2.0931076,11.766565 2.1122625,10.413901 2.1381061,10.217218 2.4263499,9.2304135 3.4518645,5.7195582 6.3620145,3.011352 9.9260612,2.2511292 10.571985,2.1133515 11.096684,2.0644377 11.928702,2.0644377 c 1.421365,0 2.321886,0.1481443 3.462328,0.569586 0.445773,0.1647323 1.443589,0.6459446 1.85733,0.8957265 0.828644,0.500265 1.956371,1.5096496 2.560191,2.2915264 1.149309,1.4882199 1.822099,3.0822799 2.085929,4.9422494 0.06268,0.441894 0.06216,2.010745 -8.1e-4,2.462006 -0.223733,1.603204 -0.743218,2.997735 -1.588218,4.263487 -0.441694,0.661625 -0.706704,0.984118 -1.278634,1.555974 -0.828996,0.828888 -1.570418,1.358916 -2.628033,1.878729 -0.920172,0.45226 -1.793032,0.739686 -2.772037,0.91281 -0.587292,0.103854 -2.343461,0.133308 -2.93617,0.04924 z m 2.06079,-2.898657 c 2.017418,-0.189784 3.903381,-1.323861 5.29438,-3.183642 0.147361,-0.197024 0.26793,-0.371565 0.26793,-0.387868 0,-0.05656 -0.677163,-0.593539 -1.130699,-0.896624 -1.684343,-1.125596 -3.545365,-1.623634 -5.635259,-1.508079 -0.830508,0.04592 -1.479468,0.176703 -2.327067,0.468968 -1.1927883,0.411291 -2.0397782,0.912858 -3.2135413,1.902981 -0.073765,0.06222 0.7917079,1.105959 1.3611859,1.64155 0.5875255,0.552565 1.093935,0.903415 1.8545975,1.284902 1.1277859,0.565606 2.3090609,0.792526 3.5284729,0.677812 z m 0.05471,-8.07589 c 0.309703,-0.08325 0.831911,-0.359469 1.094225,-0.578792 0.50745,-0.4242832 0.870489,-0.9854156 1.022778,-1.5808618 C 15.0233,8.359726 15.02235,7.6564877 14.921065,7.2587219 14.703748,6.4052816 14.113073,5.6779098 13.325209,5.293545 12.881293,5.0769782 12.571313,5.0086823 12.021884,5.0063927 11.439464,5.0039657 11.174964,5.0631249 10.67234,5.3082382 9.9161037,5.6770304 9.3425737,6.345681 9.1060092,7.1343465 c -0.08435,0.2812092 -0.1240209,0.814494 -0.090311,1.2140272 0.10212,1.2103259 1.0849548,2.3154333 2.3131768,2.6009553 0.274844,0.06389 1.185101,0.04041 1.477203,-0.0381 z"
     id="path4711"
     inkscape:connector-curvature="0" />
  <path
     style="fill:#02c1ca;fill-opacity:1;stroke-width:0.03647416"
     d="m 2.0238981,12.003647 c 6.38e-5,-0.26079 0.00587,-0.362691 0.01291,-0.226446 0.00704,0.136244 0.00698,0.349618 -1.16e-4,0.474164 -0.0071,0.124546 -0.012858,0.01307 -0.012794,-0.247718 z"
     id="path4713"
     inkscape:connector-curvature="0" />
  <path
     style="fill:#02c1ca;fill-opacity:1;stroke-width:0.03647416"
     d="M 10.909422,21.917372 C 10.644676,21.888729 9.9300044,21.753613 9.5963526,21.669122 8.6286558,21.424072 7.3719987,20.874479 6.5507599,20.337148 5.2118434,19.461103 4.0428679,18.20395 3.2727036,16.811823 2.6971726,15.77151 2.2306316,14.355573 2.1159034,13.300973 2.0574197,12.763382 2.0946843,10.640385 2.1692549,10.261491 2.592196,8.1125183 3.5608877,6.3217933 5.1138276,4.8181495 6.5840586,3.3945889 8.3816688,2.4962754 10.453495,2.1497756 c 0.576626,-0.096437 2.46961,-0.096647 3.082067,-3.429e-4 1.086288,0.1708113 1.893726,0.4419871 3.071959,1.03171 1.453125,0.7273102 2.706896,1.8559579 3.680477,3.3131756 0.792963,1.186874 1.290217,2.4389657 1.550616,3.9044657 0.08885,0.500062 0.0975,0.633372 0.100491,1.550152 0.0026,0.800313 -0.01004,1.087817 -0.06259,1.422493 -0.249575,1.589334 -0.749727,2.89061 -1.595809,4.151915 -1.000839,1.492011 -2.248347,2.592643 -3.82721,3.376611 -1.140627,0.566368 -2.293448,0.90798 -3.392097,1.005171 -0.391859,0.03467 -1.867145,0.04306 -2.151976,0.01225 z m 1.784594,-2.929963 c 1.787909,-0.158244 3.454678,-1.030116 4.78883,-2.504994 0.248095,-0.274263 0.721224,-0.872934 0.809477,-1.024263 0.03577,-0.06134 -0.13968,-0.224161 -0.675145,-0.62652 -1.189917,-0.894129 -2.488795,-1.458799 -3.953956,-1.718929 -0.553828,-0.09833 -1.887737,-0.136699 -2.505434,-0.07207 -1.7717469,0.185379 -3.6464507,1.023391 -5.0330464,2.249823 l -0.1342245,0.11872 0.14772,0.212128 c 0.5391377,0.774212 1.4305754,1.65662 2.1815197,2.159424 1.3977688,0.935893 2.8639522,1.340353 4.3742592,1.206679 z m 0.107472,-8.082568 c 0.793817,-0.204808 1.550366,-0.848762 1.922941,-1.6367559 0.58934,-1.2464484 0.212891,-2.8124134 -0.876712,-3.6469825 -0.301895,-0.2312328 -0.772869,-0.458976 -1.132823,-0.5477863 -0.335516,-0.08278 -1.080507,-0.086957 -1.386019,-0.00777 -1.140527,0.2956193 -1.9642946,1.1012389 -2.2425808,2.193175 -0.090188,0.35388 -0.0991,1.0431542 -0.018434,1.4257766 0.1090016,0.5170271 0.4978603,1.1694332 0.9288945,1.5584491 0.3734803,0.337073 0.9964583,0.655033 1.4102813,0.719789 0.282569,0.04422 1.136009,0.0088 1.394452,-0.0579 z"
     id="path4715"
     inkscape:connector-curvature="0" />
  <path
     style="fill:#02c1ca;fill-opacity:1;stroke-width:0.03647416"
     d="M 10.669308,21.886652 C 9.5134041,21.717899 8.2109041,21.28057 7.1794311,20.714885 5.5494144,19.820944 4.1305143,18.390709 3.2232032,16.727052 2.8388954,16.02238 2.4368505,14.934611 2.2487336,14.090536 2.0897598,13.377225 2.0556257,12.868683 2.0854005,11.657143 2.114357,10.478899 2.1447754,10.235028 2.3606437,9.4504559 2.654811,8.381307 3.0894657,7.4203018 3.6808226,6.5315891 4.1248072,5.8643529 4.4876462,5.4285766 5.0784551,4.8530064 5.8750723,4.0769362 6.6221675,3.5490769 7.6085106,3.0653986 8.557653,2.5999625 9.3241083,2.3456275 10.313686,2.1677327 c 0.424355,-0.076286 0.5771,-0.084188 1.63525,-0.084602 1.39101,-5.437e-4 1.83018,0.051353 2.790941,0.3298047 0.807102,0.2339176 1.984158,0.7713608 2.693118,1.2296754 1.906489,1.2324712 3.441019,3.2790272 4.107402,5.4779152 0.480523,1.585603 0.551083,3.37362 0.197722,5.010407 -0.566914,2.62598 -2.244609,4.970212 -4.573377,6.390349 -1.19299,0.727513 -2.774422,1.263472 -4.085107,1.384474 -0.557197,0.05144 -2.005763,0.03996 -2.410327,-0.0191 z m 1.943655,-2.898008 c 1.431966,-0.111372 2.823326,-0.688924 3.968192,-1.647193 0.459812,-0.384869 1.077451,-1.034966 1.431504,-1.506732 l 0.300142,-0.399932 -0.118103,-0.123601 c -0.371992,-0.389311 -1.300754,-1.009908 -2.087707,-1.395004 -0.864978,-0.423276 -1.632978,-0.667741 -2.589666,-0.824327 -0.568695,-0.09308 -2.242525,-0.09373 -2.772036,-0.0011 -1.1367019,0.198906 -2.3381127,0.64318 -3.2591368,1.205208 -0.5865414,0.35792 -1.4654385,1.037051 -1.4633168,1.130717 0.00295,0.130471 0.9197351,1.203482 1.408049,1.647999 1.2122961,1.103565 2.7101596,1.789821 4.1715476,1.911223 0.493435,0.04099 0.517544,0.04106 1.010531,0.0027 z m 0.06546,-8.06614 c 0.471493,-0.08267 0.944098,-0.342238 1.378127,-0.756906 0.68101,-0.6506371 0.977027,-1.3942038 0.927539,-2.3298956 -0.02489,-0.4706915 -0.08924,-0.727958 -0.284907,-1.1390459 -0.389127,-0.8175541 -1.07724,-1.3822077 -1.959361,-1.6078163 -0.34304,-0.087735 -1.080079,-0.095327 -1.422287,-0.01465 -1.023357,0.2412602 -1.8767456,1.0352268 -2.1947404,2.0419188 -0.1097563,0.3474602 -0.1415935,1.1258612 -0.061431,1.5019368 0.2182409,1.0238539 0.9790093,1.8852778 1.9781133,2.2398308 0.366634,0.130108 1.100451,0.159044 1.638943,0.06463 z"
     id="path4717"
     inkscape:connector-curvature="0" />
  <path
     style="fill:#02c1ca;fill-opacity:1;stroke-width:0.03647416"
     d="m 10.909422,21.919538 c -0.05015,-0.0074 -0.214285,-0.03107 -0.364741,-0.05268 C 9.8302833,21.764254 8.7914185,21.460526 8.0279635,21.131062 6.8348199,20.616167 5.9313202,19.996236 4.9616025,19.027096 3.6021827,17.668485 2.7711339,16.196864 2.3032892,14.319757 2.1083818,13.537741 2.1008793,13.450325 2.1013763,11.967173 2.1018829,10.455285 2.1077757,10.395061 2.3421049,9.5069555 2.6848014,8.2081386 3.3643387,6.8523987 4.198618,5.8030395 4.5120083,5.4088563 5.2334933,4.6740929 5.6571429,4.3176716 6.6346548,3.4952794 7.9946684,2.77747 9.2717916,2.4098754 10.148551,2.1575175 10.59856,2.0943521 11.666548,2.0737363 c 2.006398,-0.03873 3.114804,0.2009826 4.823383,1.0431439 1.658024,0.8172429 3.09745,2.1591619 4.074638,3.7986213 1.747518,2.9318656 1.867788,6.5507665 0.318804,9.5927055 -1.273193,2.50033 -3.526582,4.343642 -6.235349,5.100625 -0.548542,0.153294 -1.054651,0.251129 -1.531915,0.296132 -0.369292,0.03482 -1.995575,0.04556 -2.206687,0.01457 z m 2.15507,-2.9884 c 1.150793,-0.157571 2.268903,-0.63702 3.297818,-1.414113 0.560035,-0.422969 1.733352,-1.678902 1.89033,-2.023433 0.03728,-0.08182 0.02502,-0.103874 -0.14438,-0.259637 -0.664156,-0.610692 -1.893554,-1.337582 -2.871423,-1.697746 -0.463112,-0.170571 -1.214721,-0.362674 -1.701275,-0.434826 -0.558593,-0.08284 -1.637129,-0.112492 -2.240515,-0.06161 -1.173586,0.09897 -2.5402741,0.530681 -3.6013495,1.137603 -0.592127,0.338689 -1.671813,1.143776 -1.671813,1.246617 0,0.121329 0.9049153,1.172457 1.4224924,1.652333 0.9598231,0.889909 2.2351576,1.557434 3.4424421,1.801816 0.723508,0.146454 1.378668,0.162397 2.177673,0.05299 z m -0.07604,-8.093849 c 0.930074,-0.343037 1.659304,-1.1280077 1.920947,-2.067782 0.09012,-0.3236863 0.08872,-1.1921774 -0.0025,-1.525738 C 14.637901,6.2594495 13.925541,5.4940367 12.960337,5.1521862 12.652961,5.0433214 12.620488,5.039379 12.021883,5.0382507 c -0.552957,-0.00104 -0.647305,0.00796 -0.871803,0.08317 -1.13771,0.381158 -1.9442326,1.2889603 -2.0995035,2.3631522 -0.118173,0.8175417 0.024463,1.5102244 0.4419279,2.1461281 0.3259197,0.496458 0.7733246,0.883304 1.2953176,1.119986 0.429116,0.194571 0.553664,0.214202 1.270535,0.200263 0.609831,-0.01186 0.675994,-0.01994 0.930091,-0.113661 z"
     id="path4719"
     inkscape:connector-curvature="0" />
  <path
     style="fill:#02c1ca;fill-opacity:1;stroke-width:0.03647416"
     d="M 10.635866,21.885882 C 9.3185198,21.685591 7.9469858,21.19208 6.8221813,20.513627 6.1617173,20.115251 5.6067207,19.67183 4.9616025,19.027096 3.550747,17.61708 2.7298988,16.126678 2.2484756,14.100912 2.1124621,13.528585 2.0833034,13.164581 2.082974,12.034867 2.0826277,10.846891 2.1172231,10.422441 2.2641644,9.8118481 2.709542,7.9611472 3.5537533,6.4130827 4.8356849,5.0963458 5.4227118,4.4933807 5.8685683,4.1165082 6.4595745,3.7237074 7.6894964,2.9062638 8.8777379,2.4297302 10.3813,2.1509343 c 0.526495,-0.097625 2.572642,-0.099328 3.190736,-0.00266 0.824855,0.1290098 1.556946,0.3488335 2.391614,0.7181263 1.321723,0.5847872 2.210273,1.2014443 3.192159,2.215371 1.440697,1.4877103 2.336865,3.2763562 2.702825,5.3945184 0.07105,0.41125 0.0811,0.598772 0.08082,1.509116 -3.29e-4,1.109543 -0.02323,1.342633 -0.217781,2.217137 -0.21966,0.987379 -0.735725,2.237762 -1.275262,3.089854 -0.527807,0.833568 -1.31824,1.739736 -2.059785,2.36138 -1.442752,1.209473 -3.448009,2.069744 -5.247025,2.251016 -0.536891,0.0541 -2.101245,0.04228 -2.503735,-0.01891 z m 2.420851,-2.953857 c 1.676806,-0.244061 3.190363,-1.095797 4.449127,-2.503693 0.410633,-0.459282 0.77136,-0.926426 0.77136,-0.998916 0,-0.05974 -0.333669,-0.356294 -0.687549,-0.611069 -1.161028,-0.835877 -2.398623,-1.392748 -3.652877,-1.643658 -1.018685,-0.203785 -2.528721,-0.212724 -3.472392,-0.02056 -1.0636155,0.216593 -2.1725363,0.651668 -3.0532936,1.197931 -0.3214643,0.199379 -1.0220601,0.713699 -1.2615483,0.926126 -0.1404799,0.124606 -0.1438654,0.132833 -0.091185,0.221601 0.2418948,0.4076 1.2490172,1.487382 1.7923346,1.921644 0.9819753,0.784872 2.1918013,1.330974 3.3479123,1.511209 0.438646,0.06838 1.386199,0.06807 1.858111,-6.2e-4 z m -0.17769,-8.058501 C 13.627732,10.640637 14.328592,10.032321 14.686681,9.3045593 14.87866,8.9143919 14.943514,8.6764636 14.976375,8.2417627 15.073645,6.9550304 14.407292,5.8188015 13.238062,5.2776863 12.793946,5.0721513 12.611096,5.0370564 11.98541,5.0372611 c -0.628075,2.043e-4 -0.889889,0.060337 -1.361362,0.312668 -1.1024634,0.5900352 -1.6751862,1.6135487 -1.5990658,2.857693 0.034052,0.5565651 0.1555292,0.9258314 0.4614617,1.4027526 0.3991813,0.6222883 1.0843761,1.1319993 1.7481961,1.3004703 0.28989,0.07357 1.366432,0.04914 1.644387,-0.03732 z"
     id="path4721"
     inkscape:connector-curvature="0" />
  <path
     style="fill:#02c1ca;fill-opacity:1;stroke-width:0.03647416"
     d="M 10.635866,21.886707 C 8.9866676,21.643987 7.3429335,20.96072 6.0114047,19.964409 5.467349,19.557322 4.4770364,18.577237 4.0768846,18.049867 3.1444206,16.820951 2.5491414,15.500345 2.1899768,13.86383 2.1191185,13.540968 2.1079379,13.359327 2.092601,12.281865 2.0730502,10.908359 2.1043709,10.460943 2.266571,9.7967084 2.6174894,8.3596435 3.1804521,7.1557277 4.0317154,6.0218845 4.4231806,5.500471 5.2439351,4.6487247 5.7404531,4.2486245 7.0801824,3.1690549 8.6715038,2.447667 10.362818,2.1531848 10.827437,2.072288 12.41971,2.0405461 13.100757,2.098604 c 1.087241,0.092685 2.049848,0.3719692 3.25155,0.9433813 1.028077,0.4888536 1.787916,1.0328953 2.656075,1.9017398 0.905038,0.905753 1.401281,1.5977065 1.95032,2.7194968 0.452958,0.9254776 0.71556,1.7462932 0.899981,2.8130721 0.07127,0.412239 0.08118,0.598811 0.08118,1.527353 0,0.928543 -0.0099,1.115115 -0.08118,1.527354 -0.238327,1.378598 -0.693113,2.601305 -1.381705,3.714763 -0.74973,1.212318 -1.97858,2.450789 -3.16634,3.191127 -1.26348,0.787536 -2.805341,1.330149 -4.171037,1.467874 -0.524812,0.05292 -2.098549,0.04157 -2.503735,-0.01806 z m 2.797687,-3.021576 c 1.577774,-0.337733 2.903443,-1.133425 4.076538,-2.446816 0.384329,-0.430293 0.766948,-0.926189 0.767047,-0.994137 1.1e-4,-0.07515 -0.539187,-0.511789 -1.057685,-0.856353 -0.566132,-0.376218 -1.557801,-0.8775 -2.115502,-1.069371 -1.140718,-0.392452 -2.424297,-0.551331 -3.699487,-0.457917 -1.7597664,0.128911 -3.5331052,0.85551 -5.0337964,2.062522 -0.1918308,0.15429 -0.3487831,0.291763 -0.3487831,0.305495 0,0.08771 0.5054261,0.71387 0.9919897,1.22894 1.089407,1.153235 2.4939388,1.958864 3.8999598,2.236989 0.54281,0.107373 0.560112,0.108574 1.36337,0.09466 0.607705,-0.01053 0.800743,-0.02789 1.156349,-0.104011 z m -0.554526,-7.993395 c 0.923639,-0.274281 1.79903,-1.2024438 2.028477,-2.1507634 0.08254,-0.341118 0.0836,-1.0773063 0.0021,-1.4130441 -0.253807,-1.0448973 -1.030421,-1.8659335 -2.067005,-2.1852347 -0.238988,-0.073616 -0.3473,-0.084024 -0.857143,-0.082361 -0.539262,0.00176 -0.605748,0.00954 -0.87538,0.1023953 C 10.11492,5.48544 9.3735108,6.2490102 9.1155359,7.196837 9.0116017,7.5787018 9.0017329,8.3869247 9.0967025,8.7392097 9.279751,9.4182182 9.7551666,10.088413 10.334611,10.484292 c 0.266,0.181732 0.753271,0.402041 0.976027,0.441287 0.302117,0.05323 1.326214,0.01807 1.568389,-0.05384 z"
     id="path4723"
     inkscape:connector-curvature="0" />
  <path
     style="fill:#02c1ca;fill-opacity:1;stroke-width:0.03647416"
     d="M 10.836474,21.917918 C 10.241007,21.856047 9.1365425,21.574844 8.4656535,21.314293 7.0859781,20.778473 6.0974214,20.14414 5.0418286,19.117307 3.7674277,17.877628 2.9148366,16.457937 2.4119447,14.73816 2.1308152,13.77676 2.108629,13.605362 2.0912995,12.261032 2.0733951,10.872097 2.105541,10.45111 2.284778,9.7272102 2.6330992,8.3204167 3.2027129,7.1168411 4.0601877,5.975826 4.4088524,5.5118687 5.2850555,4.6142688 5.7665653,4.2277789 6.7337953,3.4514195 7.7269164,2.9134782 8.9215805,2.5188101 9.9937244,2.1646178 10.652547,2.0660444 11.95419,2.0650698 c 1.239922,-9.284e-4 1.944302,0.086278 2.805607,0.3473515 0.774612,0.2347954 1.826476,0.7027426 2.49613,1.1104639 1.167048,0.7105612 2.462969,2.0146128 3.226478,3.2467197 0.754263,1.2171866 1.322803,2.886337 1.441149,4.2310031 0.04749,0.539544 0.04771,1.475745 4.7e-4,1.987842 -0.144359,1.565 -0.744496,3.232149 -1.641236,4.55927 -0.566143,0.837857 -1.507172,1.832124 -2.286898,2.416275 -1.399299,1.048321 -3.20435,1.774945 -4.819815,1.940218 -0.344954,0.03529 -2.036485,0.0452 -2.339601,0.01371 z m 2.407295,-3.020375 c 1.898613,-0.358792 3.448846,-1.366656 4.787238,-3.112361 0.21124,-0.275526 0.253429,-0.351652 0.222355,-0.401216 -0.0597,-0.09522 -0.614049,-0.533412 -1.000084,-0.790523 -1.264314,-0.842073 -2.582108,-1.342851 -3.991272,-1.516733 -0.541333,-0.0668 -1.915699,-0.05634 -2.407295,0.01832 -1.1129341,0.169019 -2.3038714,0.59604 -3.2847284,1.177769 -0.3977839,0.235918 -1.1240754,0.752448 -1.4376281,1.022424 l -0.1266124,0.109015 0.09731,0.147047 c 0.1410296,0.21311 0.5879318,0.742915 0.9414879,1.11614 1.1650129,1.229825 2.7467858,2.06964 4.302572,2.284379 0.351261,0.04848 1.531674,0.01471 1.896657,-0.05426 z m -0.780461,-7.96911 c 0.602498,-0.05436 1.152759,-0.330745 1.637096,-0.822288 0.664267,-0.674149 0.938727,-1.4562612 0.854074,-2.4338046 -0.11759,-1.3579138 -1.239842,-2.5003447 -2.571074,-2.6173043 -0.959518,-0.084302 -1.588112,0.097202 -2.30476,0.6654905 -0.4419295,0.3504419 -0.843076,0.9819446 -0.9791866,1.5414795 -0.085869,0.3530002 -0.085768,1.1525391 1.824e-4,1.4772036 0.088782,0.3353428 0.3543147,0.8526175 0.5799344,1.1297504 0.4468568,0.5488829 1.1969748,1.0098119 1.7404818,1.0694839 0.246452,0.02706 0.678314,0.02291 1.043247,-0.01001 z"
     id="path4725"
     inkscape:connector-curvature="0" />
  <path
     style="fill:#02c1ca;fill-opacity:1;stroke-width:0.03647416"
     d="M 10.599392,21.887406 C 9.1186311,21.651201 7.6247891,21.071685 6.4480997,20.276969 5.9069887,19.911512 5.5709192,19.634542 5.0423663,19.118444 4.1886274,18.284822 3.56524,17.432717 3.0687244,16.420686 2.6592468,15.586061 2.3921088,14.816345 2.1833987,13.869758 2.1060577,13.518984 2.1016912,13.418817 2.1020507,12.003647 l 3.8e-4,-1.49544 0.1015275,-0.474164 C 2.5352769,8.4866845 3.3308378,6.8324105 4.3000932,5.6753799 4.9591575,4.8886343 5.9268839,4.0371515 6.7331307,3.5345996 7.9520933,2.7747926 9.4703037,2.23485 10.758272,2.1030816 c 0.487382,-0.049863 1.920618,-0.049788 2.433569,1.273e-4 1.089355,0.1060046 2.187356,0.4443134 3.37686,1.0404564 0.841638,0.4218025 1.572631,0.9467039 2.302063,1.6530334 1.245218,1.2057779 2.072669,2.5137538 2.602374,4.1136504 0.345743,1.0442644 0.487895,1.9455239 0.487895,3.0932979 0,1.145758 -0.142804,2.048463 -0.490455,3.100304 -0.37984,1.149231 -0.857134,2.043163 -1.626122,3.045593 -0.389874,0.508228 -1.31945,1.418545 -1.864262,1.825638 -1.261686,0.942754 -2.798861,1.603405 -4.373167,1.879511 -0.487305,0.08546 -2.537165,0.107761 -3.007635,0.03271 z m 2.119215,-2.934949 c 1.248912,-0.09716 2.53821,-0.611584 3.643703,-1.453834 0.665398,-0.506951 1.953614,-1.941297 1.89072,-2.105196 -0.0317,-0.08261 -0.644842,-0.561351 -1.114389,-0.870117 -0.859171,-0.564974 -1.794753,-0.982415 -2.745936,-1.225189 -0.85853,-0.219126 -1.34623,-0.26681 -2.494441,-0.243888 -1.059898,0.02116 -1.269481,0.0482 -2.0648293,0.266459 -1.3364225,0.366732 -2.5093952,0.995946 -3.7190663,1.995005 l -0.108124,0.0893 0.093703,0.141595 c 0.3457638,0.522484 1.3350599,1.552112 1.8915732,1.968688 0.9516995,0.712392 2.0436864,1.203251 3.0637984,1.377208 0.590813,0.100749 0.965441,0.114257 1.663288,0.05997 z m -0.32687,-8.023133 c 0.668564,-0.05532 1.186049,-0.307631 1.699326,-0.828534 0.313305,-0.3179596 0.401996,-0.4388284 0.580792,-0.7915048 0.215394,-0.4248664 0.2862,-0.7463763 0.2862,-1.2995588 0,-0.5684746 -0.0755,-0.902137 -0.309508,-1.3677811 C 14.310996,5.9702575 13.744115,5.4667775 13.016189,5.1921528 12.732551,5.0851446 12.679423,5.0775953 12.109639,5.063335 11.400398,5.0455843 11.216165,5.0798329 10.708815,5.3237463 9.9921947,5.6682681 9.4626835,6.2494235 9.1935921,6.9867516 c -0.2044924,0.560322 -0.2125043,1.4223812 -0.018407,1.980507 0.2717661,0.781463 0.9792129,1.5191514 1.7545329,1.8295334 0.399252,0.159831 0.748982,0.191534 1.462019,0.132532 z"
     id="path4727"
     inkscape:connector-curvature="0" />
  <path
     style="fill:#02c1ca;fill-opacity:1;stroke-width:0.03647416"
     d="M 10.818237,21.920506 C 8.9921905,21.663894 7.1574682,20.894758 5.8212766,19.825725 5.3854431,19.477032 4.6331332,18.73089 4.2599559,18.277204 3.4193869,17.255292 2.7763256,16.0173 2.3913883,14.679924 2.1034549,13.679565 2.1019959,13.666098 2.1014252,12.003647 2.1008591,10.354395 2.1067119,10.29767 2.3743342,9.3586202 2.7516584,8.034643 3.4674301,6.6649674 4.2991398,5.6753799 4.738967,5.1520633 5.5539476,4.3752609 6.0560601,4.0007637 7.4339511,2.9730725 9.1436196,2.28069 10.745289,2.1017173 c 0.4287,-0.047904 1.932126,-0.047599 2.443769,4.955e-4 1.123967,0.1056526 2.289252,0.4750829 3.519757,1.1158691 1.335577,0.6955027 2.604014,1.8340968 3.509562,3.1503072 0.928441,1.3494857 1.558814,3.055348 1.70502,4.6139819 0.04829,0.514768 0.04829,1.527784 0,2.042553 -0.109852,1.17108 -0.538717,2.57348 -1.120987,3.665654 -0.239666,0.449544 -0.710644,1.158763 -1.035237,1.5589 -0.32967,0.406398 -0.978023,1.065359 -1.380547,1.403135 -1.136751,0.953902 -2.528504,1.66006 -4.012158,2.03572 -0.803675,0.203489 -1.020554,0.226057 -2.279635,0.237211 -0.641945,0.0057 -1.216414,0.0034 -1.276596,-0.005 z m 2.297872,-3.009921 c 1.182899,-0.173766 2.463761,-0.761777 3.44849,-1.583112 0.614428,-0.512477 1.67613,-1.716978 1.67613,-1.901568 0,-0.05077 -0.11413,-0.166204 -0.355623,-0.359698 -1.379711,-1.105487 -3.064179,-1.817173 -4.70813,-1.989181 -0.525109,-0.05494 -2.092981,-0.02243 -2.504636,0.05194 -1.5310519,0.276605 -2.9544069,0.93024 -4.2713759,1.961509 -0.2084939,0.163264 -0.3790796,0.309054 -0.3790796,0.323978 0,0.04948 0.4187318,0.574237 0.7822402,0.980306 0.9120777,1.018865 1.9230259,1.731182 3.0878196,2.175683 0.4093547,0.156216 1.1329197,0.335727 1.5281167,0.379115 0.353984,0.03886 1.316785,0.01674 1.696048,-0.03898 z M 12.77709,10.872417 C 13.644014,10.696689 14.520988,9.8548315 14.848116,8.8843193 14.94897,8.5851126 14.98944,7.818685 14.924176,7.4439111 14.745673,6.4188686 13.975621,5.5386555 12.92395,5.1575396 12.627477,5.0501005 11.618614,5.0192068 11.272569,5.1069705 10.191409,5.3811739 9.2666378,6.3512498 9.0838227,7.4029448 c -0.066227,0.3809847 -0.027049,1.2251821 0.069314,1.4935733 0.1782485,0.4964615 0.4405648,0.9070475 0.8034219,1.2575409 0.4046014,0.390815 1.0044584,0.712966 1.4404484,0.773588 0.286982,0.0399 1.064207,0.0088 1.380083,-0.05523 z"
     id="path4729"
     inkscape:connector-curvature="0" />
  <path
     style="fill:#19c7cf;fill-opacity:1;stroke-width:0.03647416"
     d=""
     id="path4731"
     inkscape:connector-curvature="0" />
  <path
     style="fill:#19c7cf;fill-opacity:1;stroke-width:0.03647416"
     d="M 10.547689,21.882751 C 8.8430466,21.619988 6.9337069,20.76374 5.6571429,19.689575 5.2317529,19.331631 4.4742759,18.560632 4.1620374,18.167781 3.7736088,17.67907 3.3678616,17.030708 3.066406,16.417021 2.7405792,15.753722 2.5774404,15.329297 2.3743281,14.6165 2.0986949,13.6492 2.1008174,13.669687 2.10175,11.98541 2.102541,10.557035 2.1071681,10.450844 2.1838574,10.101063 2.5409729,8.4722542 3.2455087,6.9757433 4.2244766,5.7665653 4.4941217,5.4335116 5.2445018,4.6642342 5.6024316,4.3539085 6.9712979,3.1670991 9.0049926,2.2831565 10.792632,2.0979953 c 0.626079,-0.064848 2.425256,-0.022155 2.943538,0.069849 1.614417,0.2865858 3.297619,1.0620987 4.551183,2.0968975 0.440077,0.3632767 1.19493,1.1269763 1.520118,1.5379322 1.049071,1.3257619 1.731504,2.8639109 2.050136,4.620842 0.07218,0.397979 0.08172,0.574704 0.08338,1.543657 0.002,1.196205 -0.02513,1.463114 -0.238402,2.341522 -0.346656,1.427774 -0.997127,2.76548 -1.894251,3.89556 -0.580145,0.730792 -1.511083,1.582851 -2.307552,2.112032 -1.249606,0.830248 -2.916841,1.447623 -4.288232,1.587926 -0.555608,0.05684 -2.245141,0.04324 -2.66486,-0.02146 z m 1.94836,-2.929241 c 0.378507,-0.02022 0.762151,-0.06391 0.984802,-0.112127 0.997632,-0.216067 1.988526,-0.6766 2.838172,-1.319087 0.550912,-0.416589 1.659198,-1.590061 1.868109,-1.977986 l 0.06937,-0.128817 -0.126428,-0.130886 c -0.357387,-0.369988 -1.188688,-0.91951 -2.004848,-1.325282 -0.848155,-0.421678 -1.611915,-0.672632 -2.516717,-0.826937 -0.456425,-0.07784 -1.73812,-0.108866 -2.381697,-0.05766 -1.3112702,0.104339 -2.7624852,0.620963 -3.983045,1.417942 -0.3866433,0.252463 -0.9541174,0.672411 -1.1220303,0.830335 l -0.1007537,0.09476 0.1117627,0.162441 c 0.3039699,0.441805 1.1855836,1.379994 1.6665947,1.773542 1.0659585,0.872136 2.4843336,1.485027 3.6936666,1.596062 0.170517,0.01566 0.326444,0.03035 0.346505,0.03265 0.02006,0.0023 0.315501,-0.01073 0.656535,-0.02895 z m 0.252125,-8.08053 C 13.644916,10.683007 14.531946,9.8457133 14.834813,8.9033435 14.963655,8.5024537 14.99494,7.8308903 14.905369,7.3888373 14.723773,6.4926266 14.139285,5.7402948 13.296573,5.3180542 12.870504,5.1045725 12.706309,5.0739797 11.98541,5.0737581 c -0.620805,-1.897e-4 -0.671037,0.0051 -0.923024,0.097161 -0.983428,0.3592973 -1.7634445,1.2107268 -1.9603689,2.1398467 -0.067402,0.3180124 -0.066149,1.0493066 0.00235,1.3726865 0.1660797,0.7840341 0.8151735,1.5976677 1.5881649,1.9907517 0.431754,0.219556 0.57687,0.249397 1.219928,0.250861 0.378241,8.61e-4 0.672302,-0.01747 0.835712,-0.05208 z"
     id="path4733"
     inkscape:connector-curvature="0" />
</svg>
