<?xml version="1.0" encoding="UTF-8" standalone="no"?>
<!-- Generator: Adobe Illustrator 16.0.0, SVG Export Plug-In . SVG Version: 6.00 Build 0)  -->

<svg
   xmlns:dc="http://purl.org/dc/elements/1.1/"
   xmlns:cc="http://creativecommons.org/ns#"
   xmlns:rdf="http://www.w3.org/1999/02/22-rdf-syntax-ns#"
   xmlns:svg="http://www.w3.org/2000/svg"
   xmlns="http://www.w3.org/2000/svg"
   xmlns:sodipodi="http://sodipodi.sourceforge.net/DTD/sodipodi-0.dtd"
   xmlns:inkscape="http://www.inkscape.org/namespaces/inkscape"
   version="1.1"
   id="Capa_1"
   x="0px"
   y="0px"
   width="902.86px"
   height="902.86px"
   viewBox="0 0 902.86 902.86"
   style="enable-background:new 0 0 902.86 902.86;"
   xml:space="preserve"
   sodipodi:docname="cart.svg"
   inkscape:version="0.92.5 (2060ec1f9f, 2020-04-08)"><metadata
   id="metadata4987"><rdf:RDF><cc:Work
       rdf:about=""><dc:format>image/svg+xml</dc:format><dc:type
         rdf:resource="http://purl.org/dc/dcmitype/StillImage" /></cc:Work></rdf:RDF></metadata><defs
   id="defs4985" /><sodipodi:namedview
   pagecolor="#ffffff"
   bordercolor="#666666"
   borderopacity="1"
   objecttolerance="10"
   gridtolerance="10"
   guidetolerance="10"
   inkscape:pageopacity="0"
   inkscape:pageshadow="2"
   inkscape:window-width="1600"
   inkscape:window-height="836"
   id="namedview4983"
   showgrid="false"
   inkscape:zoom="0.52278316"
   inkscape:cx="239.00479"
   inkscape:cy="399.57577"
   inkscape:window-x="0"
   inkscape:window-y="27"
   inkscape:window-maximized="1"
   inkscape:current-layer="Capa_1" />
<g
   id="g4950"
   transform="matrix(0.75847458,0,0,0.8210917,103.2933,90.328857)">
	<g
   id="g4948">
		<path
   d="M 671.504,577.829 781.989,145.22 H 902.86 v -68 H 729.174 L 703.128,179.2 0,178.697 74.753,577.826 h 596.751 z m 14.262,-330.641 -67.077,262.64 H 131.199 L 81.928,246.756 Z"
   id="path4944"
   inkscape:connector-curvature="0" />
		<path
   d="m 578.418,825.641 c 59.961,0 108.743,-48.783 108.743,-108.744 0,-59.961 -48.782,-108.742 -108.743,-108.742 H 168.717 c -59.961,0 -108.744,48.781 -108.744,108.742 0,59.961 48.782,108.744 108.744,108.744 59.962,0 108.743,-48.783 108.743,-108.744 0,-14.4 -2.821,-28.152 -7.927,-40.742 h 208.069 c -5.107,12.59 -7.928,26.342 -7.928,40.742 0.001,59.961 48.783,108.744 108.744,108.744 z M 209.46,716.897 c 0,22.467 -18.277,40.744 -40.743,40.744 -22.466,0 -40.744,-18.277 -40.744,-40.744 0,-22.465 18.277,-40.742 40.744,-40.742 22.466,0 40.743,18.277 40.743,40.742 z m 409.702,0 c 0,22.467 -18.277,40.744 -40.743,40.744 -22.466,0 -40.743,-18.277 -40.743,-40.744 0,-22.465 18.277,-40.742 40.743,-40.742 22.466,0 40.743,18.277 40.743,40.742 z"
   id="path4946"
   inkscape:connector-curvature="0" />
	</g>
</g>
<g
   id="g4952">
</g>
<g
   id="g4954">
</g>
<g
   id="g4956">
</g>
<g
   id="g4958">
</g>
<g
   id="g4960">
</g>
<g
   id="g4962">
</g>
<g
   id="g4964">
</g>
<g
   id="g4966">
</g>
<g
   id="g4968">
</g>
<g
   id="g4970">
</g>
<g
   id="g4972">
</g>
<g
   id="g4974">
</g>
<g
   id="g4976">
</g>
<g
   id="g4978">
</g>
<g
   id="g4980">
</g>
<path
   style="fill:#19c7cf;fill-opacity:1;stroke-width:3.01908112"
   d="m 159.56101,554.77926 c -2.40853,-12.60359 -53.94636,-312.30833 -53.94636,-313.71085 0,-0.65121 119.6879,-1.54479 265.9731,-1.98575 l 265.97311,-0.80175 10.10422,-41.62133 10.10421,-41.62133 h 64.87003 64.87001 v 26.70047 26.70048 h -46.01507 -46.01509 l -13.65395,57.32749 c -7.50965,31.53012 -26.32406,111.04256 -41.80975,176.69431 l -28.15577,119.36684 -225.32213,0.8045 -225.32211,0.80453 z M 599.31269,401.6745 c 13.92075,-58.71381 25.0338,-107.05186 24.69571,-107.41789 -0.33811,-0.36601 -104.25161,-1.67528 -230.91888,-2.90948 l -230.30413,-2.24398 1.70833,7.57181 c 0.93958,4.16451 8.34071,46.44457 16.44697,93.95572 8.10626,47.51114 16.11362,93.81541 17.79415,102.89835 l 3.05551,16.5145 186.10593,-0.80834 186.10593,-0.8083 z"
   id="path5532"
   inkscape:connector-curvature="0" /><path
   style="fill:#19c7cf;fill-opacity:1;stroke-width:3.01908112"
   d="m 205.73698,761.62835 c -42.07779,-15.73376 -64.04057,-62.0015 -51.53581,-108.56752 3.80049,-14.15253 8.27365,-21.89356 19.9645,-34.54957 25.65454,-27.77248 18.29168,-26.84172 212.33155,-26.84172 193.79737,0 186.71747,-0.88695 212.0801,26.56951 63.18007,68.396 -8.26976,179.00826 -90.46893,140.05601 -15.57173,-7.37906 -32.38174,-25.88223 -39.82533,-43.83666 -6.25073,-15.07714 -8.25548,-44.70462 -4.11063,-60.74951 l 2.23153,-8.63839 h -79.90674 -79.90675 l 2.23154,8.63839 c 1.22735,4.75112 2.18431,17.82649 2.12656,29.05639 -0.0851,16.54282 -1.72579,23.62507 -8.64492,37.31554 -10.1666,20.11611 -28.64828,36.32734 -48.80142,42.80627 -18.84873,6.05959 -28.90192,5.79466 -47.76525,-1.25874 z m 42.27737,-53.74639 c 18.08055,-11.93378 20.49279,-35.67965 5.2958,-52.13128 -8.08787,-8.75556 -12.06189,-10.68018 -22.05278,-10.68018 -9.99088,0 -13.9649,1.92462 -22.05277,10.68018 -15.197,16.45163 -12.78475,40.1975 5.2958,52.13128 12.02935,7.9398 21.4846,7.9398 33.51395,0 z m 308.19909,1.60174 c 17.08015,-9.56168 22.51845,-30.58163 12.61002,-48.74001 -9.50122,-17.41216 -32.28463,-21.10514 -47.07684,-7.63075 -16.4822,15.01383 -14.55171,43.02725 3.79999,55.14198 10.80045,7.12985 19.50279,7.47854 30.66683,1.22878 z"
   id="path5534"
   inkscape:connector-curvature="0" /><ellipse
   style="fill:none;fill-opacity:1;stroke:#19c7cf;stroke-width:0.97968864;stroke-opacity:1"
   id="path5550"
   cx="450.47357"
   cy="433.25803"
   rx="450.48373"
   ry="433.26819" /></svg>